#!OML:ASF E:\Steps\Project 1\Capture day 1\Session 2\Subject.ASF
:FULLY-SPECIFIED
:DEGREES
345
root 12.4476 18.885 7.72529 -154.179 6.85706 177.631
lowerback -29.0636 -2.41492 -5.20916
upperback -4.1466 -0.399829 -0.248082
thorax 11.4781 0.057981 2.67088
lowerneck -3.45658 -2.81497 1.35206
upperneck 11.6673 -3.50744 -0.498018
head 4.42189 -1.5487 -0.566094
rclavicle 1.27595e-014 -1.2921e-014
rhumerus -37.6733 -30.982 -70.0783
rradius 16.2135
rwrist 14.873
rhand -8.73795 -49.7654
rfingers 7.12502
rthumb 17.1987 -79.0243
lclavicle 1.27595e-014 -1.2921e-014
lhumerus -35.9493 30.6534 66.223
lradius 10.6016
lwrist -24.9199
lhand -23.3782 -13.4207
lfingers 7.12502
lthumb 3.07783 16.5368
rfemur -21.4053 5.39513 21.487
rtibia 6.32787
rfoot -19.8636 -1.7817
rtoes -14.671
lfemur -22.7046 -8.19569 -21.7145
ltibia 8.06753
lfoot -8.44873 -3.43211
ltoes -37.347
346
root 12.4558 18.8851 7.71188 -154.284 6.9653 177.565
lowerback -29.2593 -2.43733 -5.31613
upperback -4.14612 -0.365837 -0.292887
thorax 11.5768 0.0719835 2.69558
lowerneck -3.25946 -2.76331 1.26901
upperneck 11.302 -3.45323 -0.411649
head 4.25388 -1.53184 -0.512258
rclavicle 2.57178e-014 -2.54444e-014
rhumerus -37.7871 -32.3034 -69.2827
rradius 15.4947
rwrist 17.2682
rhand -8.45263 -49.8464
rfingers 7.12502
rthumb 17.4733 -79.0811
lclavicle 2.57178e-014 -2.54444e-014
lhumerus -35.0592 28.6136 68.1742
lradius 11.0668
lwrist -23.1147
lhand -23.3341 -13.6926
lfingers 7.12502
lthumb 3.12048 16.2643
rfemur -21.2252 5.37377 21.421
rtibia 6.27539
rfoot -19.8338 -1.69657
rtoes -14.5559
lfemur -22.552 -8.1161 -21.8106
ltibia 8.08378
lfoot -8.60005 -3.41479
ltoes -38.3968
347
root 12.4602 18.883 7.70049 -154.421 7.04274 177.516
lowerback -29.263 -2.41939 -5.40821
upperback -4.16292 -0.306646 -0.314397
thorax 11.5551 0.0983951 2.7471
lowerneck -3.10633 -2.75422 1.09647
upperneck 10.8719 -3.47465 -0.13791
head 4.07743 -1.54973 -0.38472
rclavicle -6.08778e-015 -2.16675e-014
rhumerus -37.7999 -33.0872 -68.7966
rradius 14.996
rwrist 19.0092
rhand -8.06514 -50.3427
rfingers 7.12502
rthumb 17.8462 -79.5438
lclavicle -6.08778e-015 -2.16675e-014
lhumerus -34.1857 26.7495 70.0145
lradius 11.4392
lwrist -21.6232
lhand -23.4275 -13.9662
lfingers 7.12502
lthumb 3.03023 15.992
rfemur -21.0309 5.30386 21.391
rtibia 6.26198
rfoot -19.8181 -1.62216
rtoes -14.5791
lfemur -22.3586 -8.09942 -21.9007
ltibia 8.13485
lfoot -8.64237 -3.37108
ltoes -39.3138
348
root 12.4591 18.8809 7.68991 -154.543 7.10812 177.449
lowerback -29.2364 -2.37699 -5.43573
upperback -4.19211 -0.232277 -0.370515
thorax 11.5015 0.137254 2.72736
lowerneck -3.12389 -2.74103 1.09027
upperneck 10.5666 -3.48334 -0.051146
head 3.97369 -1.56109 -0.352722
rclavicle -8.69683e-016 2.42517e-014
rhumerus -37.5724 -33.2056 -68.8473
rradius 14.647
rwrist 19.8151
rhand -8.07836 -50.8195
rfingers 7.12502
rthumb 17.8334 -80.0218
lclavicle -8.69683e-016 2.42517e-014
lhumerus -33.4435 25.5843 71.3356
lradius 11.665
lwrist -20.9194
lhand -23.3375 -14.3348
lfingers 7.12502
lthumb 3.11714 15.6222
rfemur -20.8617 5.06139 21.3563
rtibia 6.247
rfoot -19.8939 -1.48378
rtoes -15.1821
lfemur -22.166 -8.15675 -22.0238
ltibia 8.10401
lfoot -8.56835 -3.39236
ltoes -39.205
349
root 12.4587 18.8804 7.68048 -154.61 7.1365 177.35
lowerback -29.308 -2.35895 -5.46819
upperback -4.19855 -0.173602 -0.463832
thorax 11.5259 0.167903 2.66238
lowerneck -3.30339 -2.67911 1.25107
upperneck 10.2523 -3.42247 -0.209298
head 3.89144 -1.5451 -0.430677
rclavicle -1.73937e-015 1.49089e-014
rhumerus -37.2695 -33.024 -69.2256
rradius 14.5452
rwrist 20.2458
rhand -8.20987 -51.0276
rfingers 7.12502
rthumb 17.7069 -80.2414
lclavicle -1.73937e-015 1.49089e-014
lhumerus -32.6421 24.179 72.6792
lradius 11.9313
lwrist -19.8618
lhand -23.3824 -14.457
lfingers 7.12502
lthumb 3.07384 15.5005
rfemur -20.7636 4.83641 21.2764
rtibia 6.24159
rfoot -20.0238 -1.37709
rtoes -15.5642
lfemur -22.0635 -8.14108 -22.1817
ltibia 8.09127
lfoot -8.5308 -3.56091
ltoes -38.9051
350
root 12.4587 18.8786 7.67385 -154.588 7.11498 177.275
lowerback -29.8755 -2.34703 -5.51552
upperback -3.56916 -0.101693 -0.456593
thorax 11.7323 0.185669 2.55156
lowerneck -3.70342 -2.61471 1.33065
upperneck 9.67612 -3.38845 -0.23714
head 3.76435 -1.55043 -0.453853
rclavicle 7.8023e-015 3.02153e-014
rhumerus -36.5431 -32.9266 -69.8759
rradius 14.5683
rwrist 20.7072
rhand -8.28712 -51.0458
rfingers 7.12502
rthumb 17.6326 -80.2663
lclavicle 7.8023e-015 3.02153e-014
lhumerus -31.3321 21.9179 74.6633
lradius 12.4131
lwrist -17.8187
lhand -23.5679 -14.3048
lfingers 7.12502
lthumb 2.89462 15.6553
rfemur -20.7756 4.83082 21.1866
rtibia 6.25995
rfoot -20.0155 -1.32237
rtoes -14.7811
lfemur -22.102 -8.17333 -22.2737
ltibia 8.20103
lfoot -8.5985 -3.52362
ltoes -39.2489
351
root 12.4568 18.8745 7.67049 -154.419 7.1424 177.236
lowerback -30.135 -2.32129 -5.48398
upperback -3.5913 -0.0301155 -0.53036
thorax 11.8145 0.228167 2.48246
lowerneck -3.82669 -2.64084 1.40231
upperneck 9.21148 -3.46448 -0.137839
head 3.62496 -1.59647 -0.434325
rclavicle -2.74571e-015 1.78906e-015
rhumerus -36.2143 -32.9869 -70.1186
rradius 14.4119
rwrist 21.3326
rhand -8.59202 -50.5544
rfingers 7.12502
rthumb 17.3391 -79.8009
lclavicle -2.74571e-015 1.78906e-015
lhumerus -30.5007 19.8785 76.2101
lradius 12.9119
lwrist -16.2163
lhand -23.5482 -13.9696
lfingers 7.12502
lthumb 2.91368 15.9903
rfemur -20.9942 4.76838 21.1221
rtibia 6.31193
rfoot -19.9129 -1.13523
rtoes -13.9832
lfemur -22.3274 -8.2755 -22.3003
ltibia 8.2991
lfoot -8.54603 -3.36426
ltoes -39.1005
352
root 12.4562 18.8731 7.66252 -154.352 7.14157 177.179
lowerback -30.2619 -2.34571 -5.49467
upperback -3.66019 -0.0213596 -0.580605
thorax 11.7912 0.244466 2.43818
lowerneck -3.75339 -2.65741 1.38694
upperneck 8.85334 -3.51388 0.0668071
head 3.48951 -1.62215 -0.361669
rclavicle 5.85172e-015 -3.06128e-014
rhumerus -35.8629 -32.5686 -70.5579
rradius 14.3222
rwrist 21.3724
rhand -8.67961 -50.0583
rfingers 7.12502
rthumb 17.2548 -79.3123
lclavicle 5.85172e-015 -3.06128e-014
lhumerus -29.9121 18.4273 77.3316
lradius 13.2991
lwrist -15.1941
lhand -23.4146 -13.5936
lfingers 7.12502
lthumb 3.04275 16.3644
rfemur -21.0584 4.51821 21.083
rtibia 6.32094
rfoot -19.8757 -0.876758
rtoes -13.7252
lfemur -22.4099 -8.28064 -22.3812
ltibia 8.33259
lfoot -8.48154 -3.38251
ltoes -38.7631
353
root 12.458 18.8732 7.6473 -154.457 7.10562 177.219
lowerback -30.1569 -2.34514 -5.50998
upperback -3.74231 -0.023093 -0.52895
thorax 11.6543 0.251503 2.50141
lowerneck -3.62772 -2.61517 1.22228
upperneck 8.46242 -3.46281 0.163047
head 3.3349 -1.60835 -0.293659
rclavicle 5.45415e-015 -2.127e-014
rhumerus -35.3922 -30.8739 -71.6045
rradius 14.6915
rwrist 20.1348
rhand -8.33652 -50.2923
rfingers 7.12502
rthumb 17.585 -79.517
lclavicle 5.45415e-015 -2.127e-014
lhumerus -29.4976 16.9542 78.5113
lradius 13.7181
lwrist -14.1867
lhand -23.3801 -14.0301
lfingers 7.12502
lthumb 3.07603 15.9275
rfemur -20.821 4.47937 21.1503
rtibia 6.2521
rfoot -19.9004 -0.830123
rtoes -13.6541
lfemur -22.2053 -8.28286 -22.3536
ltibia 8.26836
lfoot -8.51896 -3.3705
ltoes -38.766
354
root 12.4618 18.8726 7.63165 -154.614 7.06387 177.398
lowerback -29.8325 -2.26008 -5.40134
upperback -4.22458 0.0125107 -0.537056
thorax 11.7477 0.266108 2.61671
lowerneck -3.61675 -2.54934 1.18194
upperneck 8.03537 -3.37357 -0.00691823
head 3.18357 -1.5838 -0.333906
rclavicle -9.03228e-015 2.14687e-014
rhumerus -35.0314 -29.0104 -72.701
rradius 15.2305
rwrist 18.5116
rhand -8.2742 -50.8858
rfingers 7.12502
rthumb 17.645 -80.1051
lclavicle -9.03228e-015 2.14687e-014
lhumerus -29.0994 15.5113 79.5974
lradius 14.1113
lwrist -13.4943
lhand -23.3601 -14.8777
lfingers 7.12502
lthumb 3.09531 15.0796
rfemur -20.5059 4.62929 21.3628
rtibia 6.17555
rfoot -19.9344 -0.944844
rtoes -13.7731
lfemur -21.9219 -8.40887 -22.1084
ltibia 8.17257
lfoot -8.55109 -3.25946
ltoes -37.9524
355
root 12.4762 18.8652 7.66715 -153.755 6.41864 177.252
lowerback -30.2245 -2.67669 -5.71015
upperback -4.23121 -0.303433 -0.376841
thorax 11.1601 0.185391 2.67055
lowerneck -3.60275 -2.47116 1.14427
upperneck 7.56143 -3.28244 0.00602172
head 3.02014 -1.55081 -0.314878
rclavicle -1.18277e-014 4.77083e-015
rhumerus -34.7147 -27.7912 -73.5773
rradius 15.6069
rwrist 17.3453
rhand -8.48319 -51.2155
rfingers 7.12502
rthumb 17.4439 -80.4528
lclavicle -1.18277e-014 4.77083e-015
lhumerus -28.6768 13.8298 80.6246
lradius 14.6425
lwrist -12.6647
lhand -23.1866 -15.0986
lfingers 7.12502
lthumb 3.26293 14.8562
rfemur -21.6456 4.81417 21.2908
rtibia 6.41203
rfoot -19.9702 -1.7884
rtoes -13.8374
lfemur -23.5186 -8.1846 -21.9713
ltibia 9.03837
lfoot -8.49725 -4.24411
ltoes -36.8659
356
root 12.4789 18.8664 7.6592 -153.75 6.45986 177.258
lowerback -30.104 -2.64207 -5.6793
upperback -4.73866 -0.254823 -0.526101
thorax 11.3123 0.21322 2.69543
lowerneck -3.516 -2.5053 1.11096
upperneck 7.18226 -3.35191 0.267502
head 2.87987 -1.58445 -0.222518
rclavicle -1.03368e-014 -1.05356e-014
rhumerus -34.4569 -26.7676 -74.3487
rradius 15.9645
rwrist 16.3818
rhand -8.58128 -50.5497
rfingers 7.12502
rthumb 17.3495 -79.7954
lclavicle -1.03368e-014 -1.05356e-014
lhumerus -28.3146 12.1007 81.6087
lradius 15.2388
lwrist -11.7878
lhand -23.1218 -14.9057
lfingers 7.12502
lthumb 3.32548 15.0481
rfemur -21.6424 4.84501 21.3027
rtibia 6.44987
rfoot -19.9975 -1.74846
rtoes -13.7445
lfemur -23.4639 -8.15946 -21.9867
ltibia 9.03119
lfoot -8.57222 -4.20009
ltoes -37.3298
357
root 12.4806 18.8655 7.65161 -153.711 6.47458 177.23
lowerback -30.1285 -2.62074 -5.68113
upperback -4.87159 -0.184785 -0.606856
thorax 11.1648 0.268352 2.63302
lowerneck -3.46955 -2.63402 1.30581
upperneck 7.08898 -3.53772 0.289559
head 2.83548 -1.67196 -0.25349
rclavicle -4.9075e-015 -8.94531e-015
rhumerus -34.268 -25.1793 -75.3571
rradius 16.5428
rwrist 14.6252
rhand -8.58084 -49.2766
rfingers 7.12502
rthumb 17.3499 -78.5223
lclavicle -4.9075e-015 -8.94531e-015
lhumerus -27.9574 10.3447 82.5627
lradius 15.8003
lwrist -10.8573
lhand -23.2928 -14.566
lfingers 7.12502
lthumb 3.16032 15.3903
rfemur -21.6215 4.911 21.2505
rtibia 6.36267
rfoot -19.9572 -1.76585
rtoes -13.4314
lfemur -23.4417 -8.09988 -22.0455
ltibia 8.98599
lfoot -8.69951 -4.16624
ltoes -38.195
358
root 12.4832 18.8644 7.64358 -153.678 6.436 177.203
lowerback -30.1603 -2.58765 -5.68726
upperback -4.96636 -0.101134 -0.70168
thorax 11.0645 0.324938 2.56188
lowerneck -3.47928 -2.67055 1.52311
upperneck 6.94278 -3.59618 0.182011
head 2.78135 -1.70225 -0.325609
rclavicle 2.45996e-015 -6.16232e-015
rhumerus -34.0815 -23.43 -76.4673
rradius 17.2334
rwrist 12.5607
rhand -8.61854 -48.7689
rfingers 7.12502
rthumb 17.3136 -78.0177
lclavicle 2.45996e-015 -6.16232e-015
lhumerus -27.5584 8.55964 83.4688
lradius 16.3194
lwrist -9.94505
lhand -23.478 -14.5334
lfingers 7.12502
lthumb 2.98144 15.4255
rfemur -21.5756 4.95719 21.21
rtibia 6.2508
rfoot -19.9522 -1.83784
rtoes -13.1349
lfemur -23.4083 -7.96339 -22.0978
ltibia 8.92731
lfoot -8.84747 -4.24488
ltoes -39.2409
